<svg xmlns="http://www.w3.org/2000/svg" width="23.585" height="23.585" viewBox="0 0 23.585 23.585">
  <g id="whatsapp_1_" data-name="whatsapp (1)" transform="translate(-30)">
    <g id="Group_15" data-name="Group 15">
      <path id="Path_13" data-name="Path 13" d="M11.8,0H11.79A11.785,11.785,0,0,0,2.245,18.7L.775,23.085l4.533-1.449A11.79,11.79,0,1,0,11.8,0Zm6.862,16.652a3.328,3.328,0,0,1-2.314,1.664c-.616.131-1.421.236-4.13-.887-3.466-1.436-5.7-4.957-5.871-5.186a6.735,6.735,0,0,1-1.4-3.557,3.765,3.765,0,0,1,1.206-2.87,1.713,1.713,0,0,1,1.206-.423c.146,0,.277.007.4.013.346.015.52.035.749.582.284.685.977,2.378,1.06,2.552a.7.7,0,0,1,.05.638,2.038,2.038,0,0,1-.382.541c-.174.2-.339.354-.513.569-.159.187-.339.388-.139.734A10.467,10.467,0,0,0,10.486,13.4a8.67,8.67,0,0,0,2.765,1.705.746.746,0,0,0,.831-.131A14.268,14.268,0,0,0,15,13.754a.658.658,0,0,1,.846-.256c.318.111,2,.943,2.35,1.116s.575.256.659.4A2.937,2.937,0,0,1,18.657,16.652Z" transform="translate(30)" fill="#3c089a"/>
    </g>
  </g>
</svg>
