<svg xmlns="http://www.w3.org/2000/svg" width="20.021" height="14" viewBox="0 0 20.021 14">
  <path id="SvgjsPath1019" d="M585.005,977.267v2.567c0,.847-.328,1.166-1.252,1.166h-7.507c-.916,0-1.251-.337-1.251-1.166,0-.012,0-2.554,0-2.567a2.971,2.971,0,0,1,.021-.357c0-.01,0-.019.005-.029a2.132,2.132,0,0,1,.067-.32s0,0,0-.006a1.93,1.93,0,0,1,.339-.647s0,0,0,0h0a4.617,4.617,0,0,1,1.342-1.053,1.41,1.41,0,0,1,.722-.268c.345,0,.646.25,1.154.685h0l.461.4c.017.015.514.67.886.67s.871-.655.887-.67l.462-.4h0c.507-.435.808-.685,1.153-.685a1.542,1.542,0,0,1,.722.268,3.942,3.942,0,0,1,1.343,1.054h0a1.952,1.952,0,0,1,.342.652v0a2.065,2.065,0,0,1,.069.323c0,.009,0,.018,0,.027A3.183,3.183,0,0,1,585.005,977.267Zm-8.126-6.713V970a3.122,3.122,0,0,1,6.24,0v.551a3.136,3.136,0,1,1-6.24,0Zm13.131,8.7c0,.847-.306,1.167-1.252,1.167h-2.5v-3.5l.625-.584c.662-.544,1.22-.751,1.705-.494a2.5,2.5,0,0,1,1.424,2.244C590.01,978.094,590.011,979.241,590.01,979.25Zm-16.892-2.917.625.584v3.5h-2.5c-.947,0-1.252-.32-1.252-1.167v-1.167a2.5,2.5,0,0,1,1.424-2.244C571.9,975.582,572.456,975.789,573.118,976.333Zm-1.244-3.624v-.933a1.875,1.875,0,0,1,3.75,0v.933a2.073,2.073,0,0,1-1.875,1.867A2.094,2.094,0,0,1,571.874,972.709Zm12.512,0v-.933a1.875,1.875,0,0,1,3.75,0v.933a2.072,2.072,0,0,1-1.875,1.867A2.094,2.094,0,0,1,584.386,972.709Zm-10.643,4.208C573.743,976.64,573.757,976.928,573.743,976.917Zm12.513,0C586.256,976.64,586.242,976.928,586.256,976.917Z" transform="translate(-569.989 -967)" fill="#fff"/>
</svg>
