<svg xmlns="http://www.w3.org/2000/svg" width="105" height="105" viewBox="0 0 105 105">
  <path id="bubble-speak" d="M96.583,62.871a4.1,4.1,0,1,0-7.6,3.075l4.83,11.949L79.461,71.571a4.1,4.1,0,0,0-3.264-.02A39.557,39.557,0,0,1,60.586,74.7c-21.958,0-36.709-17.192-36.709-33.25C23.877,23.119,40.345,8.2,60.586,8.2S97.295,23.119,97.295,41.453a33.39,33.39,0,0,1-.365,4.7,4.1,4.1,0,1,0,8.113,1.21,41.427,41.427,0,0,0,.455-5.909A39.642,39.642,0,0,0,92.212,12.016,46.61,46.61,0,0,0,60.586,0,46.609,46.609,0,0,0,28.96,12.016,39.864,39.864,0,0,0,15.837,37.924C6.207,44.3.5,54.52.5,65.527a31.819,31.819,0,0,0,6.29,19.015L.8,99.361a4.1,4.1,0,0,0,5.457,5.29l17.274-7.614a39.037,39.037,0,0,0,13.679,2.436c.1,0,.2-.008.3-.015a38.826,38.826,0,0,0,19.3-5.231A35.307,35.307,0,0,0,69.217,82.144a47.248,47.248,0,0,0,8.52-2.369l22.005,9.7a4.1,4.1,0,0,0,5.456-5.29ZM37.207,91.259c-.056,0-.111.006-.166.008a30.756,30.756,0,0,1-11.984-2.451,4.1,4.1,0,0,0-3.264.019l-9.6,4.235,3.1-7.665a4.1,4.1,0,0,0-.682-4.2,23.941,23.941,0,0,1-5.9-15.68,24.4,24.4,0,0,1,7.581-17.473A41.4,41.4,0,0,0,28.416,70.226a45.849,45.849,0,0,0,29.84,12.626,30.146,30.146,0,0,1-21.049,8.407ZM66.533,45.322a4.1,4.1,0,1,1,0,8.2H41.924a4.1,4.1,0,1,1,0-8.2Zm12.3-8.2H41.924a4.1,4.1,0,1,1,0-8.2H78.838a4.1,4.1,0,1,1,0,8.2Zm0,0" transform="translate(-0.498 0)" fill="#9d68fb"/>
</svg>
