<svg xmlns="http://www.w3.org/2000/svg" width="96.021" height="95.951" viewBox="0 0 96.021 95.951">
  <g id="account" transform="translate(0 -0.186)">
    <path id="Path_1" data-name="Path 1" d="M85.058,139.281a10.974,10.974,0,1,0-15.7,0,18.732,18.732,0,0,0-2.2,1.195,24.119,24.119,0,0,0-9.848-7.2,13.593,13.593,0,0,0,3.944-15.342l18.713-17.576a10.589,10.589,0,1,0-3.938-4l-17.9,16.811a13.6,13.6,0,0,0-20.2,1.166L19.781,96.418a10.6,10.6,0,1,0-3.96,3.971l19.49,19.254a13.591,13.591,0,0,0,4.481,13.633,24.124,24.124,0,0,0-10.139,7.562,18.657,18.657,0,0,0-2.756-1.565,10.974,10.974,0,1,0-15.711.007,18.84,18.84,0,0,0-10.962,17.1v5.113h95.8v-5.113a18.84,18.84,0,0,0-10.962-17.1ZM10.58,96.177A4.972,4.972,0,1,1,15.553,91.2,4.978,4.978,0,0,1,10.58,96.177Zm66.626,30.083a5.366,5.366,0,1,1-5.366,5.366A5.373,5.373,0,0,1,77.206,126.259Zm8.052-40.027A4.972,4.972,0,1,1,80.286,91.2,4.978,4.978,0,0,1,85.258,86.232Zm-36.709,28.6a8.015,8.015,0,1,1-8.015,8.015A8.024,8.024,0,0,1,48.549,114.836ZM19.038,126.259a5.366,5.366,0,1,1-5.366,5.366A5.372,5.372,0,0,1,19.038,126.259Zm-13.2,29.622a13.207,13.207,0,0,1,20.884-10.244,23.865,23.865,0,0,0-2.181,9.991v.253H5.841Zm61.106,0h-36.8v-.253a18.4,18.4,0,1,1,36.8,0v.253Zm5.608,0v-.253A23.861,23.861,0,0,0,70.171,145.2,13.2,13.2,0,0,1,90.4,155.882Z" transform="translate(0 -65.353)" fill="#9d68fb"/>
    <g id="Group_4" data-name="Group 4" transform="translate(29.1 0.186)">
      <g id="Group_3" data-name="Group 3">
        <g id="Group_1" data-name="Group 1" transform="translate(9.092 12.203)">
          <path id="Path_2" data-name="Path 2" d="M207.839,73.365l-4.192-3.725a13.016,13.016,0,0,1,19.486,0l-4.192,3.725a7.407,7.407,0,0,0-11.1,0Z" transform="translate(-203.647 -65.254)" fill="#9d68fb"/>
        </g>
        <g id="Group_2" data-name="Group 2">
          <path id="Path_3" data-name="Path 3" d="M188.644,12.388a19.555,19.555,0,0,0-29.285,0l-4.192-3.725a25.163,25.163,0,0,1,37.67,0Z" transform="translate(-155.167 -0.186)" fill="#9d68fb"/>
        </g>
      </g>
    </g>
  </g>
</svg>
