<svg xmlns="http://www.w3.org/2000/svg" width="73.11" height="100.308" viewBox="0 0 73.11 100.308">
  <g id="hour-glass" transform="translate(0 0.001)">
    <path id="Path_9" data-name="Path 9" d="M177.446,244.176a2.946,2.946,0,1,0-2.946,2.945A2.945,2.945,0,0,0,177.446,244.176Zm0,0" transform="translate(-137.944 -193.971)" fill="#9d68fb"/>
    <path id="Path_10" data-name="Path 10" d="M177.446,291.207a2.946,2.946,0,1,0-2.946,2.945A2.945,2.945,0,0,0,177.446,291.207Zm0,0" transform="translate(-137.944 -231.788)" fill="#9d68fb"/>
    <path id="Path_11" data-name="Path 11" d="M70.173,85.716H66.95c-.631-18.8-7.315-25.212-11.81-29.526-2.617-2.511-3.773-3.718-3.773-6.022,0-2.341,0-3.755,4.371-7.821,4.514-4.2,10.61-9.873,11.211-27.755h2.992a2.939,2.939,0,0,0,2.939-2.939V2.938A2.939,2.939,0,0,0,69.942,0H3.169A2.938,2.938,0,0,0,.231,2.938v8.715a2.938,2.938,0,0,0,2.939,2.939H6.162c.6,17.882,6.7,23.556,11.211,27.755,2.726,2.536,4.371,4.067,4.371,7.821,0,1.866-1.081,2.988-3.527,5.351C13.625,59.955,6.795,66.553,6.16,85.717H2.939A2.938,2.938,0,0,0,0,88.656v8.713a2.938,2.938,0,0,0,2.939,2.939H70.172a2.938,2.938,0,0,0,2.939-2.939V88.655a2.938,2.938,0,0,0-2.938-2.939ZM6.108,5.877H67V8.715H6.108ZM22.3,59.746c2.616-2.527,5.321-5.14,5.321-9.578,0-6.314-3.175-9.268-6.246-12.124a24.378,24.378,0,0,1-6.209-7.86c-1.867-3.931-2.9-9.052-3.128-15.592H61.071c-.231,6.54-1.26,11.661-3.128,15.592a24.4,24.4,0,0,1-6.208,7.86c-3.071,2.857-6.246,5.81-6.246,12.124,0,4.906,2.837,7.629,5.58,10.263,4.233,4.062,9.444,9.063,10,25.286h-.064L38.517,65.569a2.939,2.939,0,0,0-3.921,0L12.1,85.716h-.063c.585-16.625,6.142-21.993,10.26-25.97Zm29.9,25.97H20.913L36.556,71.7ZM67.234,94.43H5.878V91.594H67.233V94.43Zm0,0" transform="translate(0)" fill="#9d68fb"/>
    <path id="Path_12" data-name="Path 12" d="M108.015,123.772a7.376,7.376,0,0,0,6.493-3.889,26.039,26.039,0,0,1,5.6-6.663,20.1,20.1,0,0,0,5.2-6.485,24.715,24.715,0,0,0,1.789-5.59,2.939,2.939,0,0,0-2.878-3.531H91.809a2.938,2.938,0,0,0-2.878,3.531,24.742,24.742,0,0,0,1.788,5.59,20.114,20.114,0,0,0,5.2,6.485,26.025,26.025,0,0,1,5.6,6.663,7.377,7.377,0,0,0,6.493,3.889ZM96.029,104.212q-.164-.343-.316-.722h24.6q-.152.378-.315.722c-.918,1.934-2.039,2.976-3.9,4.7a31.418,31.418,0,0,0-6.77,8.176,1.487,1.487,0,0,1-2.641,0,31.38,31.38,0,0,0-6.77-8.176c-1.857-1.727-2.977-2.769-3.9-4.7Zm0,0" transform="translate(-71.459 -78.49)" fill="#9d68fb"/>
  </g>
</svg>
